<?xml version="1.0" encoding="UTF-8" standalone="no"?>
<svg
   xmlns:dc="http://purl.org/dc/elements/1.1/"
   xmlns:cc="http://creativecommons.org/ns#"
   xmlns:rdf="http://www.w3.org/1999/02/22-rdf-syntax-ns#"
   xmlns:svg="http://www.w3.org/2000/svg"
   xmlns="http://www.w3.org/2000/svg"
   xmlns:sodipodi="http://sodipodi.sourceforge.net/DTD/sodipodi-0.dtd"
   xmlns:inkscape="http://www.inkscape.org/namespaces/inkscape"
   aria-hidden="true"
   data-prefix="fas"
   data-icon="angle-down"
   class="svg-inline--fa fa-angle-down fa-w-10"
   role="img"
   viewBox="0 0 320 512"
   version="1.1"
   id="svg4"
   sodipodi:docname="angle-down-solid.svg"
   inkscape:version="0.92.2 (5c3e80d, 2017-08-06)">
  <metadata
     id="metadata10">
    <rdf:RDF>
      <cc:Work
         rdf:about="">
        <dc:format>image/svg+xml</dc:format>
        <dc:type
           rdf:resource="http://purl.org/dc/dcmitype/StillImage" />
      </cc:Work>
    </rdf:RDF>
  </metadata>
  <defs
     id="defs8" />
  <sodipodi:namedview
     pagecolor="#ffffff"
     bordercolor="#666666"
     borderopacity="1"
     objecttolerance="10"
     gridtolerance="10"
     guidetolerance="10"
     inkscape:pageopacity="0"
     inkscape:pageshadow="2"
     inkscape:window-width="1366"
     inkscape:window-height="705"
     id="namedview6"
     showgrid="false"
     inkscape:snap-page="false"
     inkscape:zoom="0.4609375"
     inkscape:cx="160"
     inkscape:cy="256"
     inkscape:window-x="-8"
     inkscape:window-y="-8"
     inkscape:window-maximized="1"
     inkscape:current-layer="svg4" />
  <path
     fill="#fff"
     d="M143 352.3L7 216.3c-9.4-9.4-9.4-24.6 0-33.9l22.6-22.6c9.4-9.4 24.6-9.4 33.9 0l96.4 96.4 96.4-96.4c9.4-9.4 24.6-9.4 33.9 0l22.6 22.6c9.4 9.4 9.4 24.6 0 33.9l-136 136c-9.2 9.4-24.4 9.4-33.8 0z"
     id="path2" />
  <path
     style="fill:#fff;stroke-width:2.16949153"
     d="m 148.50169,354.28593 c -3.57966,-2.25381 -37.99322,-35.72222 -76.474571,-74.37422 L 2.0610169,209.63533 v -10.14846 c 0,-9.44327 0.930977,-11.14368 13.3978201,-24.47077 15.319223,-16.3763 22.119366,-20.5483 33.492643,-20.5483 7.612894,0 10.895081,2.82416 59.78889,51.44537 l 51.7338,51.44538 51.609,-51.44538 c 51.39607,-51.23313 51.64762,-51.44537 60.97476,-51.44537 8.73982,0 10.50683,1.11042 26.43864,16.61439 17.62692,17.15358 21.525,24.83361 18.17422,35.80716 -1.68661,5.52346 -129.14687,135.06485 -142.91833,145.25183 -9.83515,7.27523 -17.15265,7.87308 -26.25077,2.14475 z"
     id="path12"
     inkscape:connector-curvature="0" />
  <path
     style="fill:#fff;stroke-width:2.16949153"
     d="M 76.240981,281.73045 1.5622439,207.23039 3.1092736,197.66265 c 1.3102119,-8.10312 3.9315348,-11.92698 17.1239884,-24.97967 16.90927,-16.73013 24.87959,-19.97457 35.618865,-14.49919 3.228449,1.64601 28.070266,25.14009 55.204043,52.20907 l 49.33413,49.21633 50.46248,-50.26584 c 27.75436,-27.64622 53.19391,-51.29662 56.53234,-52.55646 9.20424,-3.47343 17.84498,1.29379 34.6081,19.09375 13.05283,13.8602 14.64407,16.49393 14.64407,24.23828 0,8.49743 -1.53802,10.24227 -69.95866,79.36669 -38.47727,38.87304 -72.59828,72.04325 -75.82447,73.71157 -3.22619,1.66833 -9.03125,3.03333 -12.90012,3.03333 -6.34641,0 -14.33745,-7.28566 -81.713059,-74.50006 z"
     id="path14"
     inkscape:connector-curvature="0" />
  <path
     style="fill:#ffffff;stroke-width:2.16949153;opacity:0"
     d="M 76.240981,281.73045 1.5622439,207.23039 3.1092736,197.66265 c 1.3097496,-8.10026 3.9307427,-11.92624 17.0884694,-24.94483 16.24026,-16.06853 23.707598,-19.54087 33.821262,-15.72701 3.043445,1.14768 28.231842,24.69654 55.974215,52.33081 l 50.44068,50.24412 50.44068,-50.24412 c 27.74237,-27.63427 53.17211,-51.27489 56.51054,-52.53473 9.20424,-3.47343 17.84498,1.29379 34.6081,19.09375 13.05283,13.8602 14.64407,16.49393 14.64407,24.23828 0,8.49743 -1.53802,10.24227 -69.95866,79.36669 -38.47727,38.87304 -72.59828,72.04325 -75.82447,73.71157 -3.22619,1.66833 -9.03125,3.03333 -12.90012,3.03333 -6.34641,0 -14.33745,-7.28566 -81.713059,-74.50006 z"
     id="path16"
     inkscape:connector-curvature="0" />
  <path
     style="opacity:0;fill:#ffffff;stroke-width:2.16949153"
     d="M 76.240981,281.73045 1.5622439,207.23039 3.1092736,197.66265 c 1.3097496,-8.10026 3.9307427,-11.92624 17.0884694,-24.94483 16.24026,-16.06853 23.707598,-19.54087 33.821262,-15.72701 3.043445,1.14768 28.231842,24.69654 55.974215,52.33081 l 50.44068,50.24412 50.44068,-50.24412 c 27.74237,-27.63427 53.17211,-51.27489 56.51054,-52.53473 9.20424,-3.47343 17.84498,1.29379 34.6081,19.09375 13.05283,13.8602 14.64407,16.49393 14.64407,24.23828 0,8.49743 -1.53802,10.24227 -69.95866,79.36669 -38.47727,38.87304 -72.59828,72.04325 -75.82447,73.71157 -3.22619,1.66833 -9.03125,3.03333 -12.90012,3.03333 -6.34641,0 -14.33745,-7.28566 -81.713059,-74.50006 z"
     id="path18"
     inkscape:connector-curvature="0" />
  <path
     style="opacity:0;fill:#ffffff;stroke-width:2.16949153"
     d="M 76.240981,281.73045 1.5622439,207.23039 3.1092736,197.66265 c 1.3097496,-8.10026 3.9307427,-11.92624 17.0884694,-24.94483 16.24026,-16.06853 23.707598,-19.54087 33.821262,-15.72701 3.043445,1.14768 28.231842,24.69654 55.974215,52.33081 l 50.44068,50.24412 50.44068,-50.24412 c 27.74237,-27.63427 53.17211,-51.27489 56.51054,-52.53473 9.20424,-3.47343 17.84498,1.29379 34.6081,19.09375 13.05283,13.8602 14.64407,16.49393 14.64407,24.23828 0,8.49743 -1.53802,10.24227 -69.95866,79.36669 -38.47727,38.87304 -72.59828,72.04325 -75.82447,73.71157 -3.22619,1.66833 -9.03125,3.03333 -12.90012,3.03333 -6.34641,0 -14.33745,-7.28566 -81.713059,-74.50006 z"
     id="path20"
     inkscape:connector-curvature="0" />
  <path
     style="opacity:0;fill:#ffffff;stroke-width:2.16949153"
     d="M 76.240981,281.73045 1.5622439,207.23039 3.1092736,197.66265 c 1.3097496,-8.10026 3.9307427,-11.92624 17.0884694,-24.94483 16.24026,-16.06853 23.707598,-19.54087 33.821262,-15.72701 3.043445,1.14768 28.231842,24.69654 55.974215,52.33081 l 50.44068,50.24412 50.44068,-50.24412 c 27.74237,-27.63427 53.17211,-51.27489 56.51054,-52.53473 9.20424,-3.47343 17.84498,1.29379 34.6081,19.09375 13.05283,13.8602 14.64407,16.49393 14.64407,24.23828 0,8.49743 -1.53802,10.24227 -69.95866,79.36669 -38.47727,38.87304 -72.59828,72.04325 -75.82447,73.71157 -3.22619,1.66833 -9.03125,3.03333 -12.90012,3.03333 -6.34641,0 -14.33745,-7.28566 -81.713059,-74.50006 z"
     id="path22"
     inkscape:connector-curvature="0" />
  <path
     style="opacity:0;fill:#ffffff;stroke-width:2.16949153"
     d="M 76.240981,281.73045 1.5622439,207.23039 3.1092736,197.66265 c 1.3097496,-8.10026 3.9307427,-11.92624 17.0884694,-24.94483 16.24026,-16.06853 23.707598,-19.54087 33.821262,-15.72701 3.043445,1.14768 28.231842,24.69654 55.974215,52.33081 l 50.44068,50.24412 50.44068,-50.24412 c 27.74237,-27.63427 53.17211,-51.27489 56.51054,-52.53473 9.20424,-3.47343 17.84498,1.29379 34.6081,19.09375 13.05283,13.8602 14.64407,16.49393 14.64407,24.23828 0,8.49743 -1.53802,10.24227 -69.95866,79.36669 -38.47727,38.87304 -72.59828,72.04325 -75.82447,73.71157 -3.22619,1.66833 -9.03125,3.03333 -12.90012,3.03333 -6.34641,0 -14.33745,-7.28566 -81.713059,-74.50006 z"
     id="path24"
     inkscape:connector-curvature="0" />
  <path
     style="opacity:0;fill:#ffffff;stroke-width:2.16949153"
     d="M 76.240981,281.73045 1.5622439,207.23039 3.1092736,197.66265 c 1.3097496,-8.10026 3.9307427,-11.92624 17.0884694,-24.94483 16.24026,-16.06853 23.707598,-19.54087 33.821262,-15.72701 3.043445,1.14768 28.231842,24.69654 55.974215,52.33081 l 50.44068,50.24412 50.44068,-50.24412 c 27.74237,-27.63427 53.17211,-51.27489 56.51054,-52.53473 9.20424,-3.47343 17.84498,1.29379 34.6081,19.09375 13.05283,13.8602 14.64407,16.49393 14.64407,24.23828 0,8.49743 -1.53802,10.24227 -69.95866,79.36669 -38.47727,38.87304 -72.59828,72.04325 -75.82447,73.71157 -3.22619,1.66833 -9.03125,3.03333 -12.90012,3.03333 -6.34641,0 -14.33745,-7.28566 -81.713059,-74.50006 z"
     id="path26"
     inkscape:connector-curvature="0" />
</svg>
